<svg id="board-placeholder" xmlns="http://www.w3.org/2000/svg" viewBox="0 0 1258.917 607.89 ">

<path class="cls-2" d="M1474.37 608.58c-2.77-3.22-9.95-10.64-21.35-12.62C1450.1214469888866 595.4569941728696 1447.1687716595534 595.342653670367 1444.2400000000002 595.6199999999999c-10.7 1-16.93 7.18-23.58 11.35-5.92 3.72-15.27 7.82-29.69 8.41C1390.8495627505997 612.1945377907131 1391.4476778245107 609.0228189987745 1392.72 606.1 1394.49339959799 602.1173107408288 1397.43723509536 598.7688722604081 1401.16 596.5c-23.89 2.3-33 9.91-36.67 16.79-3.59 6.64-1.74 11.75-5.57 19.85-5.37 11.34-16.6 17.35-25.58 20.7C1331.0927292726863 646.8906520496739 1332.6399324751324 639.2721931435117 1337.42 633.75c-11.81 3.93-17.29 9.77-20.09 14-8 12-2.58 23.52-8.07 42.54C1306.734788496428 698.8939673275765 1302.6688925245946 706.9681590783092 1297.2600000000002 714.1199999999999 1295.4998900732467 711.5511796504612 1294.3537209470787 708.6121967269441 1293.9100000000003 705.53 1293.384359185895 701.7204983923126 1293.9387243683066 697.8399421154303 1295.5100000000002 694.3299999999999c-8.17 5.32-16.18 12.82-18.38 23.15-2.62 12.35 5 19.79 5.88 35.94 0.5 8.93-1.1 20-7.82 32.93C1305.760581569861 795.4921970674699 1338.3056690192043 795.7176986860827 1369 787.0000000000001 1373.7219080502498 771.626192932999 1381.6265531975484 757.4182747156563 1392.1999999999998 745.3c5.94-6.77 30.3-34.51 59.76-34.54 32.12 0 65.57 32.85 75.84 81.49q25.17 1.54 50.22 3.7-1.87-6.84-3.76-13.69c0.06-0.41 0.75-4.6 4.13-6.2s8.55 0.06 11.06 4.66c-0.59-6.68-2.57-16.06-9.61-23-5-4.89-9.12-5.3-13.73-8.74-5.81-4.36-12.17-13.46-12.6-34.79C1555.9151580395303 712.3614235526866 1558.8934375522663 711.4502118446234 1561.9100000000003 711.6199999999999 1565.5546622394863 711.9283561166883 1568.8978359766613 713.7671016721345 1571.1100000000001 716.6799999999998c-1.24-7.3-4.19-17.47-12.23-25.64-7.24-7.35-13.41-8.24-23-14.82-6.35-4.36-14.46-11.88-21.25-25.61C1521.175184366559 648.8568602675671 1528.154918099218 649.9114306290436 1533.89 653.5199999999999 1532.2069847256457 647.3926431569071 1528.9208034556993 641.8247751018401 1524.3700000000003 637.3899999999996c-9.8-9.22-21.09-7.8-41.73-14.12C1474.0679493911618 620.6313206176399 1465.7429365760877 617.2484476449549 1457.76 613.1599999999996Z"/>

<path class="cls-2" d="M1143.68 640.48C1147.0889852665357 639.8277845794054 1150.613837858953 640.1750606968849 1153.8300000000002 641.48c7.24 3.06 9.71 10 10.11 11.14 0.94-7.6 0.87-18-5-26.76-8.75-13.17-23.83-12.76-42.63-22.7-10.08-5.33-23.13-14.63-35.61-32C1090.7379779810115 568.6501439182919 1101.3101670411902 569.349594071132 1110.93 573.16c-3.17-6.64-9-16.18-19.5-22.19-16.31-9.33-30.7-2.6-57.14-6.48C1020.9773889557041 542.5014219557713 1008.0578448410683 538.4423434574933 995.9999999999999 532.46 1003.6733967264199 525.708249614967 1014.1715462929989 523.1519184282315 1024.09 525.62c-6.4-5.76-16.21-12.67-28.88-13.89-15.25-1.46-23.86 6.35-40.36 10.43-11.21 2.77-27.66 4.22-49.76-2.43C907.269010871685 515.1140063798307 910.5275262326365 511.09059741309807 914.59 507.99999999999994 919.9522806284743 503.99435015226743 926.4286268751249 501.75751172924726 933.12 501.6c-23.2-6.81-39-4-49.24 0-14.86 5.86-20 15-39.26 24.76C833.1578175691797 532.1209281357818 820.8774810805695 536.0839589993129 808.21 538.11 809.4141107743867 535.2420558161796 811.0385933460569 532.5694112532451 813.0300000000002 530.1800000000001 816.7835874249538 525.7365758034499 821.6644699503618 522.3859345793553 827.16 520.48c-20.94-5.94-32.7-2.36-39.58 2C775.1 530.52 775 543.35 761 560 752.9276965673334 569.409771183916 742.97847394257 577.0292203491318 731.79 582.37 731.4129885873314 573.2909312983339 737.0836140343686 565.0560906060152 745.6999999999998 562.17c-4.42-1.16-19-4.41-31.21 3.64-10.73 7.09-13.87 19.15-16.81 30.41-4.51 17.26-0.68 23.33-4.37 39.09C690.562057578247 646.6895591620366 685.4514403944187 657.3639349199929 678.3099999999998 666.64 674.5294252656679 663.3463032515197 672.2779634642553 658.6367497061443 672.08860135208 653.6262282179864 671.8992392399048 648.6157067298284 673.7888110662768 643.7496515356328 677.31 640.18 670.6753055216438 642.5797981654314 664.8333839854733 646.7674314940843 660.43 652.28c-8.32 10.75-7.91 23.58-7.57 34.18 0.59 18.39 4.39 22.6 5.66 39C659.4647690609893 738.4783381651506 658.1830723675657 751.5624661515774 654.7299999999999 764.1499999999997 674.8125123174574 759.2997457192116 695.5160297669968 757.532865728404 716.1299999999998 758.9099999999999c16.61 1.14 25.09 3.82 42 6.29C782.6738289131113 768.7062723564825 807.5364359510058 769.4141404019547 832.2400000000004 767.31c8-50.23 42.3-90.47 86.92-101.77 48.45-12.27 88.13 14.84 96.73 21.08 47.71 34.66 51.36 90.06 51.72 97.55C1077.1279134454 785.302435439716 1086.734084462444 785.496702496546 1096.29 784.7499999999998c16.32-1.29 23.11-4.62 35-5.72 9.82-0.9 24.13-0.36 42.3 6.81q-4-21.87-7.93-43.75C1174.457201861216 745.4849276350708 1181.1462969753293 752.8184870625041 1183.7199999999998 761.8899999999998c4.3-13.16 7.68-31.21-1.16-45.11-6.78-10.65-16-11.47-25.13-21.07C1149.27 687.07 1141.18 671.42 1143.68 640.48Z"/>

<path class="cls-2" d="M620.79 512.38c-4.37-9-8.54-14.07-11-17.73-5.49-8.08-11-21.57-9.34-44.86C603.015640659857 451.73850100852025 605.2567013382712 454.080814428429 607.0899999999999 456.73 610.1099583984346 461.1530413406956 611.9325017014909 466.28303562850454 612.3799999999999 471.61999999999995c1.82-3.95 6.09-14.76 2.62-27.26-3.78-13.61-14.42-20.82-18.63-23.67-10.55-7.15-16-5.08-27.05-11.36C560.5804767693515 404.2299148876346 553.252290433279 397.0289062694019 548 388.38 552.6802797336758 387.13237716845504 557.451779669003 386.2563204178904 562.27 385.76 567.5852036831086 385.2055817112009 572.938196362187 385.1085587188926 578.2700000000001 385.46999999999997 571.5023881082849 379.68579623903577 563.6972819405048 375.24027924782183 555.27 372.36999999999995c-23.35-7.89-44-0.8-50.79 1.89C509.3144576925658 370.3061119472506 513.1511074629512 365.2705091236196 515.68 359.55999999999995 519.2773087303358 351.17369988110863 519.9740894946967 341.8269841733177 517.66 333 513.1494335127963 340.6839140345347 506.8597996050296 347.17245675726906 499.32000000000005 351.92c-1.43 0.88-15.16 9.38-19.5 5.33-3.05-2.84 1.66-8.93 0.19-17.07-1.59-8.78-9.45-14.91-16.88-19C464.4206766444901 338.6120499606153 456.41427763158947 355.43081028021277 442.07000000000005 365.42 443.79614037476694 355.37256236438776 443.50036762395865 345.0817104483347 441.19999999999993 335.15000000000003c-2.84-11.93-7.73-18.77-11.45-25.42-14.55-26-14-54-13.58-75.87C416.4901002296374 218.3943960116059 418.6383568961629 203.02093424178267 422.5699999999998 188.0600000000008c-8.86 13.43-36.74 59.36-22.7 109.83C402.19491064840975 306.2153808762678 405.515560777661 314.22993280601776 409.75999999999993 321.75999999999993c0.19 0.33-19.5-28.44-20.87-61.51-1.05-25.34 8.64-46.17 16.22-59C397.1166504891949 208.1343433043946 390.2561164541865 216.23335052722797 384.7800000000001 225.24999999999997c-15.63 25.93-17.8 57.26-11.32 82.3 1.81 7 4.32 13.33 9.33 26 5.73 14.49 12.73 29.85 8.45 42.6-0.31 1-0.53 1.39-0.8 2.5-2.28 9.25 2.77 18.31 7.75 24.81C395.7166253320191 407.7666377460752 392.9044132534253 411.86959163482027 389.78 415.73c-10.68 13.19-17.34 14.07-18.63 21.83-1 6.26 2.83 8.53 1.78 18.94C372.59968733330265 459.6237122649151 371.92904074049744 462.70198012589094 370.92999999999995 465.67999999999995 367 477.87 351.78 513.83 340 511.62c-5.15-1-6.68-8.68-8.42-8.07-2.52 0.87-0.48 17.64 6 34.15 7.2 18.3 19.64 36.59 24.49 34.77 2.51-0.94 1.3-16.8 1.3-16.8C367.33091988884536 556.3640952650646 371.3675678442541 556.5188334366887 375.36999999999995 556.1300000000001 381.9005205678842 555.4778610241741 388.2103606499636 553.4098442098204 393.86 550.0700000000002 384.1035074339778 551.7407072841359 374.06962215926825 550.4049484867031 365.09000000000003 546.2400000000001 365.94773258105937 543.2020822935758 367.58929708344004 540.4431503568017 369.85 538.2400000000001c3.09-2.91 5.47-2.76 8.05-4.51 5.5-3.72 3.62-10.4 6.79-19.36 1.7-4.8 6.5-10 16.11-20.57 8.2-9 12.31-13.47 16.81-15.84 7.28-3.83 11-2.7 15.88-4.53C435.2724958619014 472.7375292011486 436.9541343900774 471.8092647335955 438.4900000000001 470.6700000000002c6.61-4.22 7.49-6.53 12.51-9.38 3.88-2.19 6.81-3.85 9.15-2.79s3.31 4.52 3.18 16.58c-0.14 12.49-0.2 18.73-1.74 24.35-3.93 14.31-10.86 16.64-19 35.9C440.7907493033795 539.5712035773405 439.23488888234226 543.911586726157 437.93 548.3300000000002 430.5200390386052 551.283970722543 422.1696513042821 550.7137900622698 415.23 546.7800000000002c0.12 0.63 1.45 7.17 7.57 9.9C425.6110828011676 557.8836970287749 428.7519833244614 558.0780159587874 431.69 557.2300000000001 430.5925358189811 560.286342222866 428.53716119209736 562.9064187523578 425.83 564.7000000000002c-5.35 3.39-11.82 1.94-18.17 0.52C404.47693245907163 564.5071739287987 401.3719100099524 563.4822150620992 398.38999999999993 562.1600000000002c5.88 9.26 11.86 12.49 16.26 13.73 6.21 1.74 11.92 0.22 15.47 4.22 2.26 2.54 2.49 6 2.38 8.39 4.69-5 14-15.32 17.59-24 0.32-0.78 1.75-4.12 3.28-8.42 1.61-4.54 2.21-7 3.5-10 4.59-10.52 13.13-16.2 23.75-23.28 3.28-2.18 7.54-4.28 10-5.55 8.31-4.38 11.25-5.3 14.19-6.89 14.68-7.93 20-28.32 20.14-36.62C524.9853525946714 469.2927158491207 524.7448911518604 464.84751889937934 524.23 460.4300000000014c-0.38-3.28-0.66-4.44-0.58-4.45 0.27-0.06 5.61 12.62 4 25.76C526.6661622195062 489.4684551979685 523.929897531351 496.8700511794284 519.6499999999999 503.3800000000002c-18.84 70.88-45 116.57-66.09 145.61-9.82 13.53-27.49 35.86-52.4 73.18-16.95 25.41-30 46.89-38.48 61.34 13.43-9.71 33.19-20.46 56.69-19.49 17.21 0.72 27.47 7.34 39.51 11.72 20 7.27 50.83 10.44 97.52-8.79C553.9385182942534 748.6522255196405 554.2013716333122 730.090735884563 557.1799999999998 711.8700000000002 558.5653326835393 703.4882924250979 560.5266457687317 695.2120189804273 563.0499999999997 687.1000000000007 565.0026946911319 688.789961184494 566.6884414779668 690.7656564186647 568.0499999999998 692.9600000000004 570.9919882602544 697.8309604541932 572.3510711277639 703.4943880331986 571.9399999999998 709.1700000000004 578.2463567955845 702.0646340097535 582.4074621203579 693.3159100644174 583.9399999999999 683.9400000000004c1.42-9.26-0.64-16.41-1.5-20.12-2.65-11.43-3.42-29.09 5.66-55.78C590.7516951454699 609.98005895097 592.7418318161289 612.6894379973407 593.7999999999998 615.8000000000004c2.38 7.19-1.55 13.36-2.1 14.2 3.56-2.11 11.52-7.54 15.13-17.56 3.22-8.91 1.47-17.22 0.78-20.48-0.36-1.73-1.18-4-2.13-7-2.65-8.2-3.36-9-4-11.34-1.87-7.45 2.07-11 5.6-24.35C608.3673093923552 544.3236660759359 609.055576431144 539.2405621894662 609.1299999999998 534.1300000000005 612.4852805766225 537.8442454943662 614.7607166832372 542.4054920363491 615.7099999999999 547.3200000000005 616.3509068397918 550.7536765132426 616.3169412133736 554.27930853544 615.6099999999998 557.7000000000004c3.75-3.44 11-11.25 11.84-22.31C628 527.29 624.86 520.78 620.79 512.38ZM437.27 437.86c-2 7.12-10.19 12.33-20.37 12.66C418.54727526185127 445.7447140382067 421.28663939639256 441.4199429107997 424.9 437.89000000000004s1.86-1.78 12.11-8.62C437.95344165944874 432.0429581276714 438.0440058179762 435.0350585959456 437.27 437.86Z"/>

</svg>